<svg version="1.1" xmlns="http://www.w3.org/2000/svg" viewBox="0 0 736.4 206.8">
  <g>
    <path fill="#294F4C"
      d="M86.6,53c0.9-2.3,3.1-3.8,5.6-3.8h4.6c4.3,0,7.2,4.3,5.6,8.3l-53,130.1c-1.3,3.2-2.8,6-4.4,8.4c-1.6,2.5-3.5,4.5-5.7,5.9 c-2.2,1.6-4.8,2.8-7.9,3.5c-3.1,0.9-6.7,1.3-11,1.3H9.7c-3.3,0-6-2.7-6-6v-3c0-3.3,2.7-6,6-6H26c2.4,0,4.6-1.5,5.6-3.7l10.3-25.2 c0.6-1.5,0.6-3.1,0-4.6L0.5,57.6c-1.6-3.9,1.3-8.3,5.5-8.3h5c2.4,0,4.7,1.5,5.6,3.8l17.6,43.8L51,139.5c0.1,0.2,0.3,0.4,0.6,0.4 l0,0c0.3,0,0.5-0.2,0.6-0.4L69,96.8L86.6,53z">
    </path>
    <path fill="#294F4C"
      d="M181.8,168.1c-7.9,0-15.1-1.4-21.6-4.2c-6.3-2.8-11.7-6.7-16.3-11.9c-4.4-5.3-7.8-11.5-10.1-18.7 c-2.3-7.3-3.5-15.5-3.5-24.6c0-8.9,1.2-17.1,3.5-24.4c2.3-7.3,5.7-13.6,10.1-18.7c4.5-5.3,10-9.3,16.3-12.1 c6.5-2.8,13.6-4.2,21.6-4.2c7.9,0,15,1.4,21.3,4.2c6.5,2.8,11.9,6.8,16.3,12.1c4.5,5.1,8,11.4,10.3,18.7c2.3,7.3,3.5,15.5,3.5,24.4 c0,9.1-1.2,17.3-3.5,24.6c-2.3,7.2-5.8,13.4-10.3,18.7c-4.4,5.1-9.8,9.1-16.3,11.9C196.8,166.7,189.7,168.1,181.8,168.1z M181.8,152.9c9.8,0,17.7-2.9,23.8-8.8c6-5.9,9-15,9-27.3v-16.3c0-12.3-3-21.4-9-27.3c-6-5.9-13.9-8.8-23.8-8.8S164,67.4,158,73.3 c-6,5.9-9,15-9,27.3v16.3c0,12.3,3,21.4,9,27.3C164,150,171.9,152.9,181.8,152.9z">
    </path>
    <path fill="#294F4C"
      d="M266.7,165.4c-3.3,0-6-2.7-6-6V57.9c0-3.3,2.7-6,6-6h5.6c3.3,0,6,2.7,6,6v12c0,0.3,0.2,0.5,0.5,0.5l0,0 c0.2,0,0.4-0.1,0.5-0.3c1.1-2.7,2.6-5.2,4.3-7.6c1.8-2.6,3.9-4.9,6.4-6.8c2.6-1.9,5.7-3.4,9.2-4.6c3.5-1.2,7.6-1.8,12.3-1.8 c11.9,0,21.4,3.8,28.6,11.4c7.2,7.5,10.8,18.1,10.8,31.9v66.8c0,3.3-2.7,6-6,6h-5.6c-3.3,0-6-2.7-6-6V95.7 c0-10.4-2.3-18.1-6.8-23.1c-4.5-5.1-11.2-7.7-20-7.7c-3.5,0-7,0.4-10.3,1.3c-3.4,0.9-6.4,2.2-9,4c-2.6,1.8-4.8,4-6.4,6.8 c-1.6,2.8-2.4,6-2.4,9.7v72.8c0,3.3-2.7,6-6,6H266.7z">
    </path>
    <path fill="#8A3A38"
      d="M458.7,144.9c0-0.3-0.2-0.5-0.5-0.5l0,0c-0.2,0-0.4,0.1-0.5,0.3c-7.3,13.9-19,20.8-34.8,20.8 c-13.9,0-24.9-5.2-32.8-15.6c-7.8-10.4-11.7-25-11.7-43.8s3.9-33.4,11.7-43.8c7.9-10.4,18.8-15.6,32.8-15.6 c15.9,0,27.5,6.9,34.8,20.8c0.1,0.2,0.3,0.3,0.5,0.3l0,0c0.3,0,0.5-0.2,0.5-0.5V6c0-3.3,2.7-6,6-6h5.6c3.3,0,6,2.7,6,6v150.8 c0,3.3-2.7,6-6,6h-5.6c-3.3,0-6-2.7-6-6V144.9z M429.6,149.8c4,0,7.7-0.5,11.2-1.5c3.5-1,6.6-2.5,9.2-4.4c2.6-2.1,4.7-4.5,6.2-7.3 c1.6-2.9,2.4-6.3,2.4-10.1V85.6c0-3.8-0.8-7.1-2.4-9.9c-1.5-2.9-3.5-5.4-6.2-7.3c-2.6-2.1-5.7-3.6-9.2-4.6c-3.5-1-7.3-1.5-11.2-1.5 c-10.3,0-18.3,3.2-24,9.5c-5.6,6.2-8.4,14.4-8.4,24.6v19.4c0,10.3,2.8,18.6,8.4,24.9C411.4,146.7,419.3,149.8,429.6,149.8z">
    </path>
    <path fill="#8A3A38"
      d="M680.1,165.4c-2.5,0-4.8-1.6-5.6-4L638,59.9c-1.4-3.9,1.5-8,5.6-8h5c2.6,0,4.8,1.6,5.7,4.1l32.3,94.3 c0.1,0.2,0.3,0.4,0.6,0.4l0,0c0.3,0,0.5-0.2,0.6-0.4L720.2,56c0.8-2.4,3.1-4.1,5.7-4.1h4.6c4.2,0,7,4.1,5.6,8l-36.4,101.5 c-0.9,2.4-3.1,4-5.6,4H680.1z">
    </path>
    <path fill="#8A3A38"
      d="M598.1,162.8c-6.9,0-11.8-1.8-14.7-5.3c-2.8-3.4-4.6-7.6-5.4-12.6c-0.1-0.3-0.4-0.6-0.7-0.6l0,0 c-0.3,0-0.6,0.2-0.7,0.5c-2.5,6.4-6.5,11.4-11.9,15.2c-5.4,3.7-12.8,5.5-22,5.5c-11.9,0-21.3-3.1-28.4-9.2 c-7-6.2-10.6-14.6-10.6-25.3c0-10.6,3.8-18.7,11.4-24.4c7.8-5.7,20.2-8.6,37.4-8.6h18.2c3.3,0,6-2.7,6-6v-5.2 c0-8.4-2.3-14.6-7-18.7c-4.7-4.3-11.4-6.4-20-6.4c-7.6,0-13.9,1.5-18.7,4.6c-2.9,1.8-5.5,4-7.8,6.6c-2.3,2.7-6.4,3.6-9.3,1.5 l-2.4-1.8c-2.3-1.7-3.1-4.9-1.5-7.3c1-1.4,2.1-2.9,3.4-4.3c2.5-2.8,5.6-5.2,9.2-7.3c3.7-2.2,7.8-3.9,12.5-5.1c4.7-1.3,9.9-2,15.6-2 c13.3,0,23.9,3.4,31.7,10.1c7.9,6.7,11.9,16.1,11.9,28.2v56.5c0,3.3,2.7,6,6,6h3.8c3.3,0,6,2.7,6,6v3.4c0,3.3-2.7,6-6,6H598.1z M545.7,150.7c4.5,0,8.7-0.5,12.3-1.5c3.8-1.2,7.1-2.6,9.9-4.4c2.8-1.9,4.9-4.1,6.4-6.6c1.6-2.6,2.4-5.4,2.4-8.4v-12.7 c0-3.3-2.7-6-6-6h-18.2c-10.6,0-18.3,1.5-23.1,4.4c-4.8,2.9-7.3,7.2-7.3,12.8v4.6c0,5.9,2.1,10.3,6.2,13.4 C532.6,149.2,538.4,150.7,545.7,150.7z">
    </path>
  </g>
</svg>
